<svg width="19" height="16" viewBox="0 0 19 16" fill="none" xmlns="http://www.w3.org/2000/svg">
<rect x="3" y="3" width="13" height="12" fill="#1F51FF"/>
<path d="M9.5 0L17.7272 3H1.27276L9.5 0Z" fill="#1F51FF"/>
<path d="M6.31818 7.60227V3.85227H6.95455V7.60227H6.31818ZM4.76136 6.04545V5.40909H8.51136V6.04545H4.76136Z" fill="white"/>
<path d="M7.71483 12.3222L5.06318 9.67055L5.51316 9.22057L8.16481 11.8722L7.71483 12.3222ZM5.51316 12.3222L5.06318 11.8722L7.71483 9.22057L8.16481 9.67055L5.51316 12.3222Z" fill="white"/>
<path d="M10.2864 10.1932V9.57955H13.7864V10.1932H10.2864ZM10.2864 11.875V11.2614H13.7864V11.875H10.2864Z" fill="white"/>
<path d="M10.175 6.04999V5.42499H13.8114V6.04999H10.175Z" fill="white"/>
</svg>
